# xmcd
#
# Track frame offsets: 
#        150
#        20627
#        46672
#        65028
#        86979
#        105396
#        136791
#        169270
#
# Disc length: 2511 seconds
#
# Revision: 1
# Processed by: cddbd v1.5.2PL0 Copyright (c) Steve Scherf et al.
# Submitted via: ExactAudioCopy v0.99pb5
#
DISCID=6609cd08
DTITLE=Steven De Bruyn, Tony Gyselinck and Roland Van Campenhout - Fortu
DTITLE=ne Cookie
DYEAR=2010
DGENRE=Blues
TTITLE0=Allumeuse Bayan
TTITLE1=Reinvent Yourself
TTITLE2=She Knows How
TTITLE3=Boots and Bitches
TTITLE4=Tiny Tiny
TTITLE5=King Kong in the Lunapark
TTITLE6=Teeth Grinder
TTITLE7=Spider on My Face
EXTD=
EXTT0=
EXTT1=
EXTT2=
EXTT3=
EXTT4=
EXTT5=
EXTT6=
EXTT7=
PLAYORDER=
